<?xml version="1.0" standalone="no"?>
<!DOCTYPE svg PUBLIC "-//W3C//DTD SVG 20010904//EN"
 "http://www.w3.org/TR/2001/REC-SVG-20010904/DTD/svg10.dtd">
<svg version="1.0" xmlns="http://www.w3.org/2000/svg"
 width="1200.000000pt" height="427.000000pt" viewBox="0 0 1200.000000 427.000000"
 preserveAspectRatio="xMidYMid meet">
<metadata>
Created by potrace 1.16, written by Peter Selinger 2001-2019
</metadata>
<g transform="translate(0.000000,427.000000) scale(0.100000,-0.100000)"
fill="#000000" stroke="none">
<path d="M1519 4043 c-740 -821 -1092 -1322 -1319 -1874 -138 -337 -200 -615
-200 -909 0 -387 104 -646 361 -898 185 -181 415 -293 706 -342 148 -26 530
-28 710 -5 387 50 834 176 1313 370 217 88 292 119 2935 1250 930 398 2079
889 2555 1093 476 203 1425 609 2110 902 685 293 1260 539 1279 547 18 8 31
16 28 19 -2 3 -267 -65 -588 -150 -321 -85 -865 -230 -1209 -321 -1089 -289
-3167 -842 -3650 -970 -256 -68 -829 -220 -1275 -339 -2215 -588 -2164 -575
-2436 -613 -174 -24 -507 -23 -644 1 -251 45 -432 130 -590 277 -408 382 -431
1021 -64 1811 46 98 147 289 196 371 2 4 0 7 -5 7 -4 0 -101 -102 -213 -227z"/>
</g>
</svg>
